<svg width="50" height="50" viewBox="0 0 50 50" fill="none" xmlns="http://www.w3.org/2000/svg">
    <path d="M0 0H50V50H0V0Z" fill="white" fill-opacity="0.01" />
    <path
        d="M25.0001 45.8334C30.753 45.8334 35.9613 43.5015 39.7314 39.7314C43.5015 35.9613 45.8334 30.7529 45.8334 25C45.8334 19.2471 43.5015 14.0388 39.7314 10.2686C35.9613 6.49854 30.753 4.16669 25.0001 4.16669C19.2472 4.16669 14.0388 6.49854 10.2687 10.2686C6.4986 14.0388 4.16675 19.2471 4.16675 25C4.16675 30.7529 6.4986 35.9613 10.2687 39.7314C14.0388 43.5015 19.2472 45.8334 25.0001 45.8334Z"
        stroke="#292D32" stroke-opacity="0.5" stroke-width="3" stroke-linejoin="round" />
    <path
        d="M25 29.8176V25.6509C28.4518 25.6509 31.25 22.8527 31.25 19.4009C31.25 15.9492 28.4518 13.1509 25 13.1509C21.5482 13.1509 18.75 15.9492 18.75 19.4009"
        stroke="#292D32" stroke-opacity="0.5" stroke-width="3" stroke-linecap="round"
        stroke-linejoin="round" />
    <path fill-rule="evenodd" clip-rule="evenodd"
        d="M24.9999 39.1926C26.4381 39.1926 27.6041 38.0266 27.6041 36.5884C27.6041 35.1502 26.4381 33.9843 24.9999 33.9843C23.5617 33.9843 22.3958 35.1502 22.3958 36.5884C22.3958 38.0266 23.5617 39.1926 24.9999 39.1926Z"
        fill="#292D32" fill-opacity="0.5" />
</svg>