<svg width="46" height="46" viewBox="0 0 46 46" fill="none" xmlns="http://www.w3.org/2000/svg">
    <path
        d="M17.8292 43.8335C16.8085 40.5047 15.2686 38.0231 13.2095 36.3888C10.1209 33.9372 5.21339 35.4609 3.40063 32.9322C1.58787 30.4035 4.67067 25.7533 5.75246 23.0094C6.83425 20.2657 1.60605 19.2954 2.21644 18.5165C2.62338 17.9972 5.26535 16.4987 10.1424 14.021C11.5281 6.11821 16.6467 2.16684 25.4981 2.16684C38.7751 2.16684 43.8334 13.423 43.8334 20.5823C43.8334 27.7417 37.7085 35.4545 28.9835 37.1175C28.2033 38.2538 29.3286 40.4924 32.3592 43.8335"
        stroke="white" stroke-width="3" stroke-linecap="round" stroke-linejoin="round" />
    <path fill-rule="evenodd" clip-rule="evenodd"
        d="M18.3121 13.1042C17.6316 15.744 17.8341 17.5978 18.9196 18.6651C20.0051 19.7326 21.8552 20.4307 24.4699 20.7593C23.8767 24.1642 24.6 25.7616 26.6397 25.5514C28.6795 25.3412 29.905 24.4936 30.3165 23.0087C33.5043 23.9046 35.232 23.1548 35.4996 20.7593C35.9012 17.166 33.9635 14.2995 33.1691 14.2995C32.3746 14.2995 30.3165 14.2029 30.3165 13.1042C30.3165 12.0055 27.9123 11.3847 25.7425 11.3847C23.5727 11.3847 24.8786 9.92213 21.8991 10.5C19.9127 10.8853 18.7171 11.7533 18.3121 13.1042Z"
        fill="#9E4242" stroke="white" stroke-width="3" stroke-linejoin="round" />
    <path
        d="M29.771 24.5627C28.7117 25.2199 27.2581 26.313 26.646 27.1668C25.1159 29.3017 23.8747 30.6016 23.6032 31.9669"
        stroke="white" stroke-width="3" stroke-linecap="round" />
</svg>