<svg width="153" height="220" viewBox="0 0 153 220" fill="none">
    <rect width="152.653" height="220" rx="20" fill="#D39797" />
    <path d="M17.8096 25.6666H134.844V194.333H17.8096V25.6666Z" fill="white" fill-opacity="0.01" />
    <path
        d="M64.2235 180.278C61.8343 169.049 58.2299 160.678 53.4103 155.165C46.1808 146.895 34.694 152.035 30.4509 143.505C26.2078 134.974 33.4236 119.288 35.9558 110.032C38.4879 100.776 26.2504 97.5034 27.6791 94.8757C28.6316 93.124 34.8156 88.069 46.2313 79.7108C49.4748 53.0522 61.4557 39.7229 82.1741 39.7229C113.251 39.7229 125.091 77.6938 125.091 101.844C125.091 125.995 110.755 152.013 90.3321 157.623C88.5059 161.456 91.1399 169.008 98.2336 180.278"
        stroke="white" stroke-width="10" stroke-linecap="round" stroke-linejoin="round" />
    <path fill-rule="evenodd" clip-rule="evenodd"
        d="M65.3539 76.6185C63.761 85.5234 64.235 91.7768 66.7759 95.3774C69.3167 98.9785 73.6472 101.333 79.7674 102.442C78.3788 113.928 80.0719 119.316 84.8462 118.607C89.6207 117.898 92.4892 115.039 93.4523 110.03C100.914 113.052 104.958 110.523 105.584 102.442C106.524 90.3202 101.989 80.6507 100.129 80.6507C98.2697 80.6507 93.4523 80.3246 93.4523 76.6185C93.4523 72.9121 87.8249 70.8182 82.7462 70.8182C77.6674 70.8182 80.7239 65.8843 73.7499 67.8338C69.1005 69.1333 66.3019 72.0614 65.3539 76.6185Z"
        fill="#9E4242" stroke="white" stroke-width="10" stroke-linejoin="round" />
    <path
        d="M92.1755 115.272C89.6961 117.489 86.2936 121.176 84.8609 124.056C81.2794 131.258 78.3743 135.643 77.7386 140.249"
        stroke="white" stroke-width="10" stroke-linecap="round" />
</svg>